<?xml version="1.0" standalone="no"?>
<!DOCTYPE svg PUBLIC "-//W3C//DTD SVG 20010904//EN"
 "http://www.w3.org/TR/2001/REC-SVG-20010904/DTD/svg10.dtd">
<svg version="1.0" xmlns="http://www.w3.org/2000/svg"
 width="983.000000pt" height="983.000000pt" viewBox="0 0 983.000000 983.000000"
 preserveAspectRatio="xMidYMid meet">
<metadata>
Created by potrace 1.11, written by Peter Selinger 2001-2013
</metadata>
<g transform="translate(0.000000,983.000000) scale(0.100000,-0.100000)"
fill="#000000" stroke="none">
<path d="M0 4915 l0 -4915 4915 0 4915 0 0 4915 0 4915 -4915 0 -4915 0 0
-4915z m6245 1150 c237 -49 412 -141 429 -226 9 -48 7 -112 -5 -147 -16 -47
-42 -49 -107 -9 -197 120 -412 178 -611 163 -333 -25 -566 -227 -658 -573 -23
-87 -26 -117 -26 -263 0 -183 12 -256 63 -389 75 -195 213 -333 399 -401 189
-69 406 -64 598 13 l58 23 3 312 2 312 -255 0 -256 0 -16 37 c-10 25 -14 57
-11 97 7 100 -7 96 378 96 180 0 341 -3 359 -6 17 -4 42 -17 56 -30 l25 -23 0
-460 0 -459 -25 -30 c-43 -51 -250 -126 -435 -158 -142 -24 -390 -15 -524 20
-362 94 -599 345 -689 730 -18 76 -21 123 -21 291 -1 205 5 249 46 390 116
392 427 651 843 704 98 12 285 5 380 -14z m-2252 -6 c20 -5 44 -21 53 -34 8
-13 42 -97 74 -187 32 -90 191 -531 353 -980 163 -450 298 -831 302 -846 11
-52 -11 -62 -136 -62 -61 0 -119 4 -129 10 -10 5 -30 40 -44 77 -27 74 -166
465 -166 470 0 2 -197 3 -438 3 l-437 0 -74 -217 c-110 -323 -108 -318 -137
-331 -14 -7 -67 -12 -118 -12 -114 0 -132 10 -123 66 8 45 713 2002 729 2021
6 7 25 17 42 22 43 13 203 13 249 0z"/>
<path d="M3847 5753 c-2 -10 -82 -241 -176 -513 -94 -272 -171 -498 -171 -502
0 -4 163 -8 361 -8 361 0 361 0 356 21 -12 45 -350 1005 -357 1012 -4 5 -10 0
-13 -10z"/>
</g>
</svg>
